<svg width="36" height="36" viewBox="0 0 36 36" fill="none" xmlns="http://www.w3.org/2000/svg">
<path d="M30.3742 5.63591C28.7521 3.99776 26.8223 2.69625 24.6957 1.80616C22.5691 0.916073 20.2875 0.454946 17.9822 0.449272C15.6768 0.443598 13.393 0.893488 11.262 1.7731C9.13105 2.65271 7.19487 3.9447 5.56472 5.57485C3.93457 7.205 2.64258 9.14118 1.76297 11.2722C0.883356 13.4031 0.433466 15.6869 0.43914 17.9923C0.444814 20.2977 0.905941 22.5792 1.79603 24.7058C2.68612 26.8324 3.98763 28.7622 5.62578 30.3843C7.24789 32.0225 9.17768 33.324 11.3043 34.2141C13.4309 35.1042 15.7125 35.5653 18.0178 35.571C20.3232 35.5767 22.607 35.1268 24.738 34.2472C26.869 33.3676 28.8051 32.0756 30.4353 30.4454C32.0654 28.8153 33.3574 26.8791 34.237 24.7481C35.1166 22.6171 35.5665 20.3333 35.5609 18.028C35.5552 15.7226 35.0941 13.4411 34.204 11.3144C33.3139 9.18782 32.0124 7.25802 30.3742 5.63591ZM3 18.0101C2.99944 16.6826 3.17546 15.3608 3.52344 14.0797C4.09687 15.314 4.92969 16.3804 5.49609 17.6468C6.22812 19.275 8.19375 18.8234 9.06172 20.25C9.83203 21.5164 9.00937 23.1179 9.58594 24.4429C10.0047 25.4047 10.9922 25.6148 11.6734 26.3179C12.3695 27.0273 12.3547 27.9992 12.4609 28.9242C12.5808 30.011 12.7753 31.0883 13.043 32.1484C13.043 32.1562 13.043 32.1648 13.0492 32.1726C7.20312 30.1195 3 24.5468 3 18.0101ZM18 33.0101C17.1623 33.0099 16.3261 32.9398 15.5 32.8008C15.5086 32.589 15.5125 32.3914 15.5336 32.2539C15.7234 31.0117 16.3453 29.7969 17.1844 28.8672C18.0133 27.95 19.1492 27.3297 19.8492 26.289C20.5352 25.2734 20.7406 23.9062 20.4578 22.7195C20.0414 20.9664 17.6594 20.3812 16.375 19.4304C15.6367 18.8836 14.9797 18.0383 14.0102 17.9695C13.5633 17.9383 13.1891 18.0343 12.7461 17.9203C12.3398 17.8148 12.0211 17.5961 11.5883 17.6531C10.7797 17.7593 10.2695 18.6234 9.40078 18.5062C8.57656 18.3961 7.72734 17.4312 7.53984 16.6461C7.29922 15.6367 8.09766 15.3093 8.95312 15.2195C9.31016 15.182 9.71094 15.1414 10.0539 15.2726C10.5055 15.4398 10.7187 15.882 11.1242 16.1054C11.8844 16.5226 12.0383 15.8562 11.9219 15.1812C11.7477 14.1703 11.5445 13.7586 12.4461 13.0625C13.0711 12.5828 13.6055 12.2359 13.5055 11.3742C13.4461 10.8679 13.1687 10.639 13.4273 10.1351C13.6234 9.75154 14.1617 9.40544 14.5125 9.17654C15.418 8.58591 18.3914 8.62966 17.1766 6.97654C16.8195 6.49138 16.1609 5.62419 15.5359 5.50544C14.7547 5.35779 14.4078 6.22966 13.8633 6.61404C13.3008 7.01169 12.2055 7.46326 11.6422 6.84841C10.8844 6.02107 12.1445 5.74998 12.4234 5.17185C12.5523 4.90232 12.4234 4.5281 12.2062 4.17576C12.488 4.05701 12.7745 3.94685 13.0656 3.84529C13.2481 3.98005 13.4645 4.06122 13.6906 4.07966C14.2133 4.11404 14.7062 3.83122 15.1625 4.18747C15.6687 4.5781 16.0336 5.07185 16.7055 5.19372C17.3555 5.31169 18.0437 4.93279 18.2047 4.26716C18.3023 3.86247 18.2047 3.43513 18.1109 3.01716C21.0328 3.03397 23.8854 3.90902 26.3141 5.53357C26.1578 5.47419 25.9711 5.48122 25.7406 5.58826C25.2664 5.80857 24.5945 6.36951 24.5391 6.92576C24.4758 7.55701 25.407 7.64607 25.8492 7.64607C26.5133 7.64607 27.1859 7.34919 26.9719 6.58201C26.8789 6.24919 26.7523 5.9031 26.5484 5.69373C27.0386 6.03385 27.5082 6.40272 27.9547 6.79841C27.9477 6.80544 27.9406 6.81169 27.9336 6.81951C27.4836 7.28826 26.9609 7.65935 26.6531 8.22966C26.4359 8.63123 26.1914 8.82185 25.7516 8.92576C25.5094 8.98279 25.2328 9.00388 25.0297 9.16638C24.4641 9.61169 24.7859 10.682 25.3219 11.0031C25.9992 11.4086 27.0039 11.2179 27.5148 10.639C27.9141 10.1859 28.1492 9.39919 28.8672 9.39997C29.1833 9.39932 29.4869 9.52308 29.7125 9.74451C30.0094 10.0523 29.9508 10.3398 30.0141 10.7242C30.1258 11.407 30.7281 11.0367 31.0945 10.6922C31.3616 11.1675 31.6026 11.657 31.8164 12.1586C31.4133 12.739 31.093 13.3718 30.1234 12.6953C29.543 12.2898 29.1859 11.7015 28.457 11.5187C27.8203 11.3625 27.168 11.525 26.5391 11.6336C25.8242 11.7578 24.9766 11.8125 24.4344 12.3539C23.9102 12.8758 23.6328 13.5742 23.075 14.0984C21.9961 15.114 21.5406 16.2226 22.2391 17.6586C22.9109 19.039 24.3164 19.7883 25.8328 19.6898C27.3227 19.5906 28.8703 18.7265 28.8273 20.8914C28.8117 21.6578 28.9719 22.1883 29.207 22.9C29.425 23.5562 29.4102 24.1922 29.4602 24.8695C29.5077 25.6627 29.6317 26.4494 29.8305 27.2187C28.4301 29.0217 26.6363 30.4807 24.5859 31.4845C22.5355 32.4882 20.2829 33.01 18 33.0101Z" fill="#626262"/>
</svg>
