<svg width="200" height="200" viewBox="0 0 200 200" fill="none" xmlns="http://www.w3.org/2000/svg">
<g clip-path="url(#clip0_3001_8014)">
<path d="M100 200C155.228 200 200 155.228 200 100C200 44.7715 155.228 0 100 0C44.7715 0 0 44.7715 0 100C0 155.228 44.7715 200 100 200Z" fill="#A0B1C4"/>
<path d="M172.762 158.475C168.412 155.038 163.112 152.563 157.362 151.363L129.95 145.862C127.075 145.312 125 142.737 125 139.737V133.45C126.762 130.975 128.425 127.687 130.162 124.25C131.512 121.587 133.55 117.575 134.562 116.537C140.112 110.962 145.475 104.7 147.137 96.625C148.687 89.05 147.162 85.075 145.375 81.875C145.375 73.8875 145.125 63.8875 143.237 56.6125C143.012 46.7625 141.225 41.225 136.725 36.375C133.55 32.9375 128.875 32.1375 125.112 31.5C123.637 31.25 121.6 30.9 120.85 30.5C114.187 26.9 107.6 25.1375 99.7374 25C83.2749 25.675 63.0374 36.15 56.2624 54.825C54.1624 60.5125 54.3749 69.85 54.5499 77.35L54.3874 81.8625C52.7749 85.0125 51.1874 89.0125 52.7499 96.6125C54.3999 104.7 59.7624 110.975 65.4124 116.625C66.3374 117.575 68.4249 121.625 69.7999 124.3C71.5624 127.725 73.2374 131 74.9999 133.463V139.75C74.9999 142.738 72.9124 145.313 70.0249 145.875L42.5874 151.375C36.8749 152.587 31.5749 155.038 27.2374 158.475C25.8874 159.563 25.0374 161.15 24.8999 162.875C24.7624 164.6 25.3374 166.288 26.4999 167.575C45.1749 188.175 71.9624 200 99.9999 200C128.037 200 154.837 188.188 173.5 167.575C174.662 166.288 175.25 164.588 175.1 162.863C174.962 161.138 174.112 159.55 172.762 158.475Z" fill="#455A64"/>
</g>
<defs>
<clipPath id="clip0_3001_8014">
<rect width="200" height="200" fill="white"/>
</clipPath>
</defs>
</svg>
