<svg width="16" height="15" viewBox="0 0 16 15" fill="none" xmlns="http://www.w3.org/2000/svg">
<path d="M15.3983 14.1839L11.6001 10.3731C12.5947 9.27123 13.2058 7.81402 13.2058 6.21052C13.2054 2.78032 10.4344 0 7.01602 0C3.59763 0 0.826691 2.78032 0.826691 6.21052C0.826691 9.64071 3.59763 12.421 7.01602 12.421C8.493 12.421 9.84766 11.9001 10.9117 11.0341L14.7246 14.86C14.9104 15.0467 15.212 15.0467 15.3978 14.86C15.5841 14.6734 15.5841 14.3706 15.3983 14.1839ZM7.01602 11.4655C4.12369 11.4655 1.77901 9.11278 1.77901 6.21052C1.77901 3.30826 4.12369 0.955524 7.01602 0.955524C9.90838 0.955524 12.253 3.30826 12.253 6.21052C12.253 9.11278 9.90838 11.4655 7.01602 11.4655Z" fill="#626262"/>
</svg>
